<svg width="13" height="21" viewBox="0 0 13 21" fill="none" xmlns="http://www.w3.org/2000/svg">
<path d="M0.8125 10.8916C0.8125 11.0863 0.846191 11.266 0.913574 11.4307C0.988444 11.5954 1.10075 11.7526 1.25049 11.9023L9.99902 20.46C10.2536 20.7145 10.5605 20.8418 10.9199 20.8418C11.167 20.8418 11.3879 20.7819 11.5825 20.6621C11.7847 20.5498 11.9456 20.3926 12.0654 20.1904C12.1852 19.9958 12.2451 19.7786 12.2451 19.5391C12.2451 19.1797 12.1066 18.8615 11.8296 18.5845L3.9458 10.8916L11.8296 3.19873C12.1066 2.92171 12.2451 2.60726 12.2451 2.25537C12.2451 2.0083 12.1852 1.78743 12.0654 1.59277C11.9456 1.39811 11.7847 1.24463 11.5825 1.13232C11.3879 1.01253 11.167 0.952637 10.9199 0.952637C10.5605 0.952637 10.2536 1.07617 9.99902 1.32324L1.25049 9.88086C1.10075 10.0306 0.988444 10.1878 0.913574 10.3525C0.846191 10.5173 0.8125 10.6969 0.8125 10.8916Z" fill="#007AFF"/>
</svg>
