<svg width="40" height="40" viewBox="0 0 40 40" fill="none" xmlns="http://www.w3.org/2000/svg">
<rect width="40" height="40" rx="4" fill="#2F3741"/>
<path d="M11.1152 20.6602V24H9.99023V15.4688H13.1367C14.0703 15.4688 14.8008 15.707 15.3281 16.1836C15.8594 16.6602 16.125 17.291 16.125 18.0762C16.125 18.9043 15.8652 19.543 15.3457 19.9922C14.8301 20.4375 14.0898 20.6602 13.125 20.6602H11.1152ZM11.1152 19.7402H13.1367C13.7383 19.7402 14.1992 19.5996 14.5195 19.3184C14.8398 19.0332 15 18.623 15 18.0879C15 17.5801 14.8398 17.1738 14.5195 16.8691C14.1992 16.5645 13.7598 16.4062 13.2012 16.3945H11.1152V19.7402ZM17.5605 24V15.4688H19.9688C20.7109 15.4688 21.3672 15.6328 21.9375 15.9609C22.5078 16.2891 22.9473 16.7559 23.2559 17.3613C23.5684 17.9668 23.7266 18.6621 23.7305 19.4473V19.9922C23.7305 20.7969 23.5742 21.502 23.2617 22.1074C22.9531 22.7129 22.5098 23.1777 21.9316 23.502C21.3574 23.8262 20.6875 23.9922 19.9219 24H17.5605ZM18.6855 16.3945V23.0801H19.8691C20.7363 23.0801 21.4102 22.8105 21.8906 22.2715C22.375 21.7324 22.6172 20.9648 22.6172 19.9688V19.4707C22.6172 18.502 22.3887 17.75 21.9316 17.2148C21.4785 16.6758 20.834 16.4023 19.998 16.3945H18.6855ZM30.1406 20.2324H26.5605V24H25.4355V15.4688H30.7207V16.3945H26.5605V19.3125H30.1406V20.2324Z" fill="white"/>
</svg>
