<svg width="64" height="65" viewBox="0 0 64 65" fill="none" xmlns="http://www.w3.org/2000/svg">
<path fill-rule="evenodd" clip-rule="evenodd" d="M6.40035 14.6522C6.59025 14.7909 6.81002 14.8582 7.02866 14.8582C7.3572 14.8582 7.68148 14.7066 7.89063 14.4195C12.2986 8.37683 18.7642 4.23511 26.0972 2.75567C32.6035 1.4416 39.1854 2.29134 45.1285 5.21081C45.6586 5.47237 46.2977 5.25134 46.5559 4.72296C46.8161 4.19358 46.5975 3.55412 46.0683 3.29468C39.7008 0.166065 32.6483 -0.743337 25.6759 0.662421C17.818 2.24756 10.8904 6.68599 6.16783 13.161C5.82004 13.6371 5.92455 14.3053 6.40035 14.6522ZM10.3197 36.4051C10.3091 36.3549 10.2952 36.3069 10.2781 36.2588C10.0626 35.1508 9.93146 34.0247 9.88445 32.9082C9.86095 32.319 9.35752 31.8653 8.77496 31.8856C8.18616 31.9091 7.72848 32.4064 7.75299 32.9957C7.80637 34.2745 7.96213 35.5639 8.21591 36.83C8.22553 36.8791 8.23941 36.9272 8.25641 36.9741C8.95198 40.6984 7.5971 44.5197 4.69768 46.977C4.24851 47.3591 4.192 48.0326 4.57292 48.4821C4.78519 48.7319 5.08497 48.86 5.38787 48.86C5.63215 48.86 5.87642 48.7767 6.07707 48.6059C9.60705 45.6138 11.2328 40.9384 10.3197 36.4051ZM25.7783 35.1585C25.7004 34.5736 25.1584 34.1615 24.5781 34.2447C23.9946 34.3226 23.586 34.8606 23.6649 35.4456C24.7925 43.7694 21.7906 52.1787 15.6364 57.9395C15.2065 58.3419 15.1841 59.0177 15.5872 59.4489C15.7964 59.673 16.08 59.7861 16.3659 59.7861C16.6273 59.7861 16.8886 59.6912 17.0945 59.4979C23.7524 53.2653 26.9986 44.1665 25.7783 35.1585ZM14.9348 45.5146C15.1482 44.9648 15.7669 44.6926 16.3163 44.9061C16.8646 45.1195 17.1376 45.7387 16.9243 46.2872C15.6463 49.5771 13.5309 52.4954 10.8074 54.7285C10.609 54.8909 10.369 54.9698 10.1311 54.9698C9.8228 54.9698 9.51664 54.8365 9.30537 54.5792C8.93208 54.1235 8.99922 53.4499 9.45476 53.0773C11.8956 51.0769 13.7912 48.4618 14.9348 45.5146ZM2.7398 37.8973C2.74613 37.9094 2.75239 37.9213 2.75528 37.9351C2.84054 38.3643 2.93655 38.7891 3.04006 39.2085C3.18095 39.7806 2.83104 40.3592 2.25923 40.5012C2.17285 40.5214 2.08746 40.5311 2.00321 40.5311C1.52316 40.5311 1.08786 40.2066 0.967353 39.7199C0.865968 39.3057 0.774209 38.8884 0.687825 38.4667C0.682779 38.4507 0.675774 38.4357 0.66875 38.4206C0.659415 38.4005 0.650046 38.3804 0.645196 38.3579C-0.800323 31.1869 0.193901 23.9613 3.51911 17.4639C3.78801 16.9388 4.4302 16.7295 4.955 16.9996C5.4798 17.2686 5.6867 17.9122 5.41792 18.4364C2.32649 24.4791 1.39727 31.1954 2.7254 37.8647C2.72887 37.8765 2.73436 37.887 2.7398 37.8973ZM27.2014 8.23796C17.3178 10.2319 9.81521 17.942 8.08803 27.8798C7.98777 28.4605 8.37606 29.0134 8.95637 29.1148C9.54418 29.2151 10.0892 28.8255 10.1906 28.2459C11.7652 19.1813 18.6086 12.1501 27.6239 10.3301C39.5845 7.92086 51.2742 15.6907 53.6841 27.6566C53.6905 27.6908 53.699 27.7228 53.7086 27.7548C53.9017 28.723 54.0681 29.6816 54.2035 30.606C54.2814 31.1365 54.7369 31.5175 55.2575 31.5175C55.3097 31.5175 55.362 31.5143 55.4142 31.5058C55.9967 31.4203 56.4 30.8781 56.3146 30.2953C56.1694 29.3037 55.9892 28.2746 55.7812 27.236C55.7737 27.2018 55.7652 27.1665 55.7545 27.1335C53.0664 14.0705 40.279 5.60044 27.2014 8.23796ZM36.8739 24.6875C38.8348 25.9908 40.1703 27.9805 40.6354 30.2894C40.6439 30.3353 40.6503 30.3812 40.6534 30.427C41.2039 33.1991 41.4865 36.0277 41.494 38.8351C41.4961 39.4243 41.0193 39.9035 40.4294 39.9046H40.4273C39.8395 39.9046 39.3627 39.4286 39.3606 38.8394C39.3531 36.1271 39.0757 33.3934 38.5349 30.7152C38.5264 30.6725 38.521 30.6298 38.5167 30.5871C38.1423 28.8899 37.1437 27.4296 35.6929 26.4647C34.2069 25.4772 32.4265 25.1293 30.677 25.4804C28.0517 26.01 26.0024 28.0467 25.4562 30.6693C25.3357 31.2467 24.7725 31.6161 24.1932 31.4965C23.6171 31.3759 23.247 30.8103 23.3675 30.2327C24.0887 26.7732 26.7918 24.0864 30.2557 23.3873C32.562 22.9241 34.9132 23.3831 36.8739 24.6875ZM33.0493 31.8205C32.933 31.243 32.3708 30.8716 31.7927 30.9847C31.2155 31.101 30.8411 31.6647 30.9573 32.2421C33.0568 42.6613 30.234 53.2214 23.2136 61.2165C22.8254 61.6594 22.8691 62.334 23.3107 62.7237C23.5133 62.9009 23.7651 62.9884 24.0147 62.9884C24.3113 62.9884 24.6057 62.8667 24.8169 62.6265C32.2802 54.1256 35.281 42.8983 33.0493 31.8205ZM63.3435 25.6528C63.3516 25.6683 63.3596 25.6836 63.3631 25.7011C63.826 28.0036 64.0383 30.3477 63.9946 32.6723C63.9839 33.254 63.5082 33.7195 62.9289 33.7195H62.9075C62.3187 33.7078 61.8504 33.221 61.8611 32.6318C61.9016 30.4905 61.7074 28.329 61.285 26.2048C61.2816 26.1924 61.2764 26.181 61.2711 26.1696L61.271 26.1696C61.2646 26.1556 61.2581 26.1417 61.2551 26.1259C59.736 18.5866 55.4359 12.0016 49.1462 7.58456C48.664 7.2462 48.5478 6.58009 48.8859 6.09762C49.2231 5.61515 49.8898 5.49669 50.372 5.83718C57.0862 10.5521 61.6829 17.5736 63.3257 25.6125C63.3301 25.627 63.3368 25.64 63.3435 25.6528ZM48.2064 28.7624C47.3338 24.4286 44.8268 20.6958 41.1476 18.2503C37.4684 15.8038 33.0583 14.9402 28.7282 15.8123C19.7908 17.6153 13.9844 26.3596 15.7872 35.3026C15.7999 35.3655 15.8181 35.4253 15.8406 35.4829C16.183 37.2666 16.2587 39.0749 16.0657 40.8617C16.0028 41.4477 16.4263 41.974 17.0131 42.038C17.5859 42.0957 18.1247 41.6773 18.1876 41.0901C18.4095 39.0235 18.3113 36.9335 17.8963 34.8765C17.8835 34.8146 17.8654 34.7548 17.8429 34.6983C16.3878 26.9722 21.4261 19.4638 29.1497 17.9055C32.9207 17.1444 36.7632 17.898 39.9667 20.0286C43.1522 22.1464 45.3284 25.3722 46.1017 29.1178L46.1069 29.1536L46.1097 29.171L46.1123 29.1861C47.2986 35.0665 47.4096 41.027 46.443 46.899C46.348 47.4818 46.7417 48.0304 47.3231 48.1265C47.3817 48.135 47.4394 48.1404 47.497 48.1404C48.01 48.1404 48.4625 47.7689 48.5488 47.2459C49.5527 41.1401 49.4417 34.9458 48.2182 28.8327C48.2149 28.8094 48.2118 28.7859 48.2064 28.7624ZM54.7092 35.3893C54.672 34.8011 55.1189 34.2941 55.7067 34.2567C56.3084 34.2194 56.8023 34.6666 56.8386 35.2548C57.2386 41.6048 56.6113 47.9444 54.9728 54.097C54.8448 54.5753 54.4138 54.8912 53.9423 54.8912C53.8515 54.8912 53.7588 54.8784 53.667 54.8538C53.0973 54.7024 52.7592 54.1173 52.9107 53.5484C54.4895 47.6188 55.0944 41.5089 54.7092 35.3893ZM46.7317 50.8579C46.1589 50.7031 45.5774 51.0425 45.4259 51.6125C44.6131 54.6472 43.5046 57.6178 42.1285 60.4424C41.8703 60.9729 42.0911 61.6112 42.6203 61.8695C42.7718 61.9432 42.9297 61.9774 43.0876 61.9774C43.4822 61.9774 43.862 61.7574 44.0465 61.3774C45.4824 58.4302 46.6388 55.3304 47.4858 52.1644C47.6395 51.5954 47.3014 51.0095 46.7317 50.8579ZM39.0969 43.6209C39.163 43.035 39.6963 42.6155 40.2778 42.6816C40.8623 42.7478 41.2827 43.2773 41.2167 43.8632C40.4167 50.8826 37.8745 57.6918 33.8645 63.5552C33.6586 63.8573 33.3236 64.0195 32.9833 64.0195C32.7753 64.0195 32.5662 63.9597 32.3816 63.8328C31.8952 63.4997 31.7714 62.8358 32.1042 62.3501C35.918 56.7727 38.3352 50.2956 39.0969 43.6209Z" fill="#00815D"/>
</svg>
