<svg width="15" height="16" viewBox="0 0 15 16" fill="none" xmlns="http://www.w3.org/2000/svg">
<path d="M14.2939 7.36678L8.16719 13.4934C7.41662 14.244 6.39864 14.6657 5.33719 14.6657C4.27573 14.6657 3.25775 14.244 2.50719 13.4934C1.75662 12.7429 1.33496 11.7249 1.33496 10.6634C1.33496 9.60199 1.75662 8.584 2.50719 7.83344L8.63385 1.70678C9.13423 1.2064 9.81288 0.925293 10.5205 0.925293C11.2282 0.925293 11.9068 1.2064 12.4072 1.70678C12.9076 2.20715 13.1887 2.8858 13.1887 3.59344C13.1887 4.30108 12.9076 4.97973 12.4072 5.48011L6.27385 11.6068C6.02366 11.857 5.68434 11.9975 5.33052 11.9975C4.9767 11.9975 4.63737 11.857 4.38719 11.6068C4.137 11.3566 3.99644 11.0173 3.99644 10.6634C3.99644 10.3096 4.137 9.9703 4.38719 9.72011L10.0472 4.06678" stroke="black" stroke-linecap="round" stroke-linejoin="round"/>
</svg>
