<svg width="40" height="40" viewBox="0 0 40 40" fill="none" xmlns="http://www.w3.org/2000/svg">
<circle cx="20" cy="20" r="20" fill="#3392D3"/>
<path d="M12.1973 24H11.0723V15.4688H12.1973V24ZM20.5352 21.293C20.4297 22.1953 20.0957 22.8926 19.5332 23.3848C18.9746 23.873 18.2305 24.1172 17.3008 24.1172C16.293 24.1172 15.4844 23.7559 14.875 23.0332C14.2695 22.3105 13.9668 21.3438 13.9668 20.1328V19.3125C13.9668 18.5195 14.1074 17.8223 14.3887 17.2207C14.6738 16.6191 15.0762 16.1582 15.5957 15.8379C16.1152 15.5137 16.7168 15.3516 17.4004 15.3516C18.3066 15.3516 19.0332 15.6055 19.5801 16.1133C20.127 16.6172 20.4453 17.3164 20.5352 18.2109H19.4043C19.3066 17.5312 19.0938 17.0391 18.7656 16.7344C18.4414 16.4297 17.9863 16.2773 17.4004 16.2773C16.6816 16.2773 16.1172 16.543 15.707 17.0742C15.3008 17.6055 15.0977 18.3613 15.0977 19.3418V20.168C15.0977 21.0938 15.291 21.8301 15.6777 22.377C16.0645 22.9238 16.6055 23.1973 17.3008 23.1973C17.9258 23.1973 18.4043 23.0566 18.7363 22.7754C19.0723 22.4902 19.2949 21.9961 19.4043 21.293H20.5352ZM28.6387 20.0098C28.6387 20.8457 28.498 21.5762 28.2168 22.2012C27.9355 22.8223 27.5371 23.2969 27.0215 23.625C26.5059 23.9531 25.9043 24.1172 25.2168 24.1172C24.5449 24.1172 23.9492 23.9531 23.4297 23.625C22.9102 23.293 22.5059 22.8223 22.2168 22.2129C21.9316 21.5996 21.7852 20.8906 21.7773 20.0859V19.4707C21.7773 18.6504 21.9199 17.9258 22.2051 17.2969C22.4902 16.668 22.8926 16.1875 23.4121 15.8555C23.9355 15.5195 24.5332 15.3516 25.2051 15.3516C25.8887 15.3516 26.4902 15.5176 27.0098 15.8496C27.5332 16.1777 27.9355 16.6562 28.2168 17.2852C28.498 17.9102 28.6387 18.6387 28.6387 19.4707V20.0098ZM27.5195 19.459C27.5195 18.4473 27.3164 17.6719 26.9102 17.1328C26.5039 16.5898 25.9355 16.3184 25.2051 16.3184C24.4941 16.3184 23.9336 16.5898 23.5234 17.1328C23.1172 17.6719 22.9082 18.4219 22.8965 19.3828V20.0098C22.8965 20.9902 23.1016 21.7617 23.5117 22.3242C23.9258 22.8828 24.4941 23.1621 25.2168 23.1621C25.9434 23.1621 26.5059 22.8984 26.9043 22.3711C27.3027 21.8398 27.5078 21.0801 27.5195 20.0918V19.459Z" fill="white"/>
</svg>
